<?xml version="1.0" encoding="UTF-8"?>
<svg id="b" data-name="Layer 2" xmlns="http://www.w3.org/2000/svg" xmlns:xlink="http://www.w3.org/1999/xlink" viewBox="0 0 148.41 114.28">
  <defs>
    <style>
      .e {
        fill: url(#d);
      }
    </style>
    <linearGradient id="d" x1="31.91" y1="-1.96" x2="124.7" y2="90.83" gradientUnits="userSpaceOnUse">
      <stop offset="0" stop-color="#d4365d"/>
      <stop offset=".14" stop-color="#bb3d6c"/>
      <stop offset=".42" stop-color="#7b5193"/>
      <stop offset=".5" stop-color="#69579f"/>
      <stop offset=".53" stop-color="#685da0"/>
      <stop offset=".74" stop-color="#6590b1"/>
      <stop offset=".91" stop-color="#62b0bc"/>
      <stop offset="1" stop-color="#62bcc0"/>
    </linearGradient>
  </defs>
  <g id="c" data-name="Layer 1">
    <path class="e" d="M62.26,91.62c-3,7.92-9.28,16.93-24.58,16.93-6.42,0-10.51-3.28-10.51-7.65,0-2.73,1.77-6.14,5.6-6.14,1.91,0,3.41.96,3.69,1.77-1.64.14-2.73,1.64-2.73,3.41,0,3,2.73,5.05,5.33,5.05,11.06,0,15.16-18.57,18.16-38.09l-1.23.41c-3.28,9.69-8.33,18.43-17.07,18.43-6.42,0-11.47-4.78-11.47-12.97,0-11.74,11.2-26.21,11.2-38.09,0-8.06-5.87-14.88-14.88-14.88-10.79,0-17.2,8.06-17.2,16.25,0,8.74,5.73,13.11,10.65,13.11s7.37-3.28,7.37-6.55c0-2.59-1.5-4.78-3.96-4.78-.96,0-2.05.27-2.32.68,0-3,1.64-5.05,4.51-5.05,3.41,0,6.83,3.14,6.83,7.92,0,6.28-7.51,11.33-15.02,11.33S0,47.79,0,37.41C0,24.3,14.2,15.84,26.62,15.84c13.93,0,20.62,10.65,20.62,20.89,0,12.83-9.83,25.26-9.83,34.82,0,4.23,1.64,6.42,4.23,6.42,6.42,0,12.01-11.33,15.16-21.85.96-3.41,1.09-3.69,1.23-4.1,2.59-10.24,5.46-34.13,24.03-37.14,1.23-.14,2.46-.14,3.82-.14,6.42,0,10.51,3.28,10.51,7.65,0,2.73-1.77,6.14-5.6,6.14-1.91,0-3.41-.82-3.69-1.77,1.64-.14,2.73-1.64,2.73-3.41,0-3-2.73-5.05-5.32-5.05-1.09,0-2.05.14-3,.55-8.74,3-12.15,19.25-13.65,26.76-3.14,14.88-.96,33.45-5.6,46.01ZM131.07,48.74c1.37-.27,2.73-.27,3.96-.27,8.6,0,13.38,5.6,13.38,12.7,0,11.88-13.24,17.34-24.3,17.34h-20.21c-15.97,0-26.35,7.78-26.35,18.98,0,7.65,4.92,13.79,13.38,13.79,7.1,0,12.02-4.37,12.02-9.56,0-3.96-2.73-7.1-6.83-6.83-1.09.14-1.37.27-2.05,1.09,0-3.14,2.18-5.19,5.46-5.19,4.1,0,8.06,3.14,8.06,8.74,0,7.92-7.92,14.75-18.3,14.75-9.42,0-20.07-5.6-20.07-17.89s11.2-21.03,29.9-21.03h24.17c11.47,0,18.43-7.1,18.43-16.11,0-4.92-2.18-7.92-6.96-8.47.55.68.82,1.64.82,2.73,0,4.51-3.69,9.01-8.19,9.01-2.59,0-4.37-1.91-4.37-4.78v-.55c.27-4.37,4.1-8.46,8.06-8.46ZM110.87,29.9c0,7.92,7.92,12.83,7.92,21.98,0,8.06-5.6,15.97-14.34,15.97-3,0-5.32-1.64-5.32-5.87,0-2.46,1.37-4.64,4.1-5.87-.27.55-.41.55-.41.96,0,1.37.82,2.32,2.32,2.32,3.82,0,5.05-5.19,5.05-9.83,0-1.91-.14-3.82-.41-5.6l-1.5-8.88c-.14-.68-.55-1.23-.68-1.91-5.32,13.11-8.33,40.42-25.4,40.42-4.51,0-8.47-2.87-9.56-7.92l-.27-1.23c-.14-1.09-.27-2.18-.27-3.41,0-11.06,7.78-25.53,16.79-27.58.68-.14,1.77-.41,3-.41,2.73,0,6.42,1.23,6.42,5.87,0,6.28-6.01,15.7-17.2,18.57.27,3.96,1.91,6.55,5.46,6.55,12.56,0,12.7-24.58,20.62-36.73.68-1.09,2.05-1.91,3.41-1.91.82,0,1.64.41,2.18.96-1.37.82-1.91,2.32-1.91,3.55ZM81.1,54.34c6.83-3,12.02-11.47,12.02-15.02,0-1.91-.68-2.73-1.91-2.73-.96,0-1.23.14-1.5.27-4.92,2.32-8.19,10.79-8.6,17.48ZM129.57,42.87c1.77-10.38,3-25.81,5.6-36.05,1.09-4.51,4.64-6.83,7.37-6.83,2.05,0,3.55,1.23,3.55,3.41,0,.96-.14,1.91-.68,3.14-4.64,10.92-10.92,26.08-12.83,35.64l-3,.68Z"/>
  </g>
</svg>