<?xml version="1.0" encoding="UTF-8"?>
<svg id="b" data-name="Layer 2" xmlns="http://www.w3.org/2000/svg" xmlns:xlink="http://www.w3.org/1999/xlink" viewBox="0 0 190.53 108.02">
  <defs>
    <style>
      .e {
        fill: url(#d);
      }
    </style>
    <linearGradient id="d" x1="36.36" y1="-1.31" x2="158.23" y2="120.56" gradientUnits="userSpaceOnUse">
      <stop offset="0" stop-color="#d4365d"/>
      <stop offset=".14" stop-color="#bb3d6c"/>
      <stop offset=".42" stop-color="#7b5193"/>
      <stop offset=".5" stop-color="#69579f"/>
      <stop offset=".53" stop-color="#685da0"/>
      <stop offset=".74" stop-color="#6590b1"/>
      <stop offset=".91" stop-color="#62b0bc"/>
      <stop offset="1" stop-color="#62bcc0"/>
    </linearGradient>
  </defs>
  <g id="c" data-name="Layer 1">
    <path class="e" d="M72.09,23.4c-1.91,14.2,2.73,30.72,5.05,45.19.55-9.01,1.09-26.21,2.87-32.91,2.73-10.65,6.28-21.85,18.57-24.58,7.65-1.64,13.79,1.23,14.88,6.01.68,3.28-.82,7.51-5.05,8.33-2.59.68-5.19-.82-5.46-1.77,2.18-.27,3.69-2.59,3.14-5.05-.68-3.28-3.28-5.32-7.24-4.37-15.43,3.55-15.7,49.56-19.8,66.36l-.55.14-10.51,2.46c2.05-14.88-6.42-34.82-6.28-51.61-2.05,4.23-3.55,9.28-4.51,14.06l-3,18.57c-1.77,12.83-7.92,30.99-24.3,34.82-8.06,1.77-14.47-2.73-15.7-7.37-1.23-5.73,2.59-10.24,6.96-11.06,2.73-.82,5.32.82,5.6,1.64-2.32.41-3.55,2.46-3,5.33.82,3.41,5.05,5.87,10.51,4.51,4.23-.82,8.47-5.46,10.38-9.83,4.64-11.33,1.64-24.58,6.55-40.14,2.46-7.78,6.01-14.47,9.69-18.16-10.65-.82-23.07-3.96-33.59-1.64-13.38,3-21.16,15.7-18.71,27.17,2.87,12.15,12.15,15.43,20.62,13.52,5.6-1.37,8.19-6.14,7.24-10.65-.82-3.14-3.41-5.46-6.83-4.78-.55.27-1.23.41-1.64.82,0-2.59,1.5-4.37,4.23-5.05,4.23-1.09,8.6,1.5,9.69,6.42,2.18,8.87-6.42,15.97-14.61,17.89-11.61,2.73-23.35-3-26.76-17.2-3-13.79,6.55-27.85,22.8-31.54,16.38-3.69,32.09,4.37,45.06,1.37,1.23-.27,3.55-.96,4.78-1.37l-1.09,4.51ZM148.42.32c.14,0,.27,0,.55-.14,6.55-1.37,11.06,5.05,12.56,9.69,2.46,7.92,2.73,17.34.82,27.03,11.2,11.33,24.17,21.3,27.44,34.54,4.37,18.3-11.47,32.22-26.49,35.5-19.39,4.23-30.45-4.92-32.63-14.61-2.32-9.01,3.28-19.52,16.93-22.39,8.47-1.91,15.97,2.05,17.34,8.06,1.09,4.51-1.64,9.69-6.28,10.65-2.73.68-5.05-.41-5.87-3.14.55.14,1.37.14,2.18,0,3.28-.82,5.05-4.64,4.23-8.33-1.09-4.37-5.6-6.69-10.79-5.6-8.88,2.18-12.15,10.65-10.38,18.57,1.91,8.74,10.79,16.93,25.53,13.79,16.93-3.69,19.8-16.66,18.16-30.17-1.37-11.2-8.19-21.57-17.89-30.04l-2.59-2.18c0,.27-.14.55-.27.82,0,.27-.14.41-.14.68-4.23,14.06-10.92,22.26-15.43,23.35-.14.14-.27.14-.41.14-5.46.96-7.1-3.41-7.65-5.73-.14-.68-.41-1.37-.41-2.18-2.59,6.14-6.14,11.06-9.97,12.02-5.73,1.23-7.51-3.28-8.06-5.6-.27-1.37-.55-2.73-.55-4.37-1.64,2.46-3.82,4.37-6.42,4.92-.41,0-.96.14-1.64.14-2.87,5.73-6.55,10.24-10.38,11.06-6.01,1.37-8.6-3-9.83-6.69-.14,1.77-.27,3.55-.27,5.19,0,10.24,5.46,19.66,14.2,19.66,6.83,0,9.01-4.1,9.01-7.78,0-2.46-.96-4.64-2.18-5.32.68-.14,1.37-.14,1.91-.14,4.1,0,6.83,2.18,6.83,6.28,0,5.73-4.37,11.88-14.34,11.88-12.29,0-19.25-10.65-19.25-24.3,0-7.1,1.91-14.2,4.37-21.3,2.32-9.01,7.78-17.61,14.34-19.25,11.88-2.59,12.29,12.29,7.92,25.12,3.41-.82,5.46-4.64,6.42-9.28.96-6.83,2.87-14.06,4.37-19.12l9.56-2.32s-6.42,22.39-5.19,28.26c.41,1.5,1.09,2.18,2.18,1.91,3.41-.68,6.14-6.83,7.51-13.24,0-.14.14-.41.14-.68,1.23-6.55,3-13.38,4.23-18.3l4.64-.96c-1.91-3-3.41-6.28-4.23-10.1-1.64-7.24.68-14.2,5.87-15.98h.27ZM106.23,62.86c-1.64-3.82.41-10.38,4.1-11.33h.41c.27-1.77.96-6.14.27-9.15-.41-1.91-1.64-3.28-3.82-2.73-5.73,1.23-9.83,16.66-8.47,22.94.68,2.59,2.05,3.28,3.82,2.87,1.23-.27,2.46-1.09,3.69-2.59ZM145.82,10.97c1.91,8.19,6.69,15.16,12.29,21.57.55-5.19.27-10.1-.82-15.02-.82-3-3.82-14.61-8.47-13.65-.27,0-.41.27-.68.41-2.18.96-3.14,3.55-2.32,6.69ZM157.43,38.14c-2.73-2.32-5.32-4.78-7.51-7.24-1.78,6.96-4.51,18.57-3.55,22.67.14,1.09.68,1.77,1.37,1.91h.82c3.14-.68,6.01-6.69,8.06-13.11.27-1.37.68-2.87.82-4.23Z"/>
  </g>
</svg>