<?xml version="1.0" encoding="UTF-8"?>
<svg id="b" data-name="Layer 2" xmlns="http://www.w3.org/2000/svg" xmlns:xlink="http://www.w3.org/1999/xlink" viewBox="0 0 211.68 115.73">
  <defs>
    <style>
      .e {
        fill: url(#d);
      }
    </style>
    <linearGradient id="d" x1="51.76" y1="-8.57" x2="170.29" y2="109.96" gradientUnits="userSpaceOnUse">
      <stop offset="0" stop-color="#d4365d"/>
      <stop offset=".14" stop-color="#bb3d6c"/>
      <stop offset=".42" stop-color="#7b5193"/>
      <stop offset=".5" stop-color="#69579f"/>
      <stop offset=".53" stop-color="#685da0"/>
      <stop offset=".74" stop-color="#6590b1"/>
      <stop offset=".91" stop-color="#62b0bc"/>
      <stop offset="1" stop-color="#62bcc0"/>
    </linearGradient>
  </defs>
  <g id="c" data-name="Layer 1">
    <path class="e" d="M72.83,27.94l-.82,3.82c-1.77,14.06,2.73,30.58,5.05,45.19.68-8.74,1.09-26.08,2.87-33.04,2.73-10.51,6.14-21.71,18.71-24.44,7.51-1.77,13.52,1.23,14.61,6.01.82,3.28-.68,7.24-4.92,8.19-2.59.68-5.05-.68-5.46-1.5,2.18-.41,3.82-2.87,3.14-5.32-.68-3.28-3.28-5.33-7.24-4.37-15.43,3.55-15.56,49.56-19.93,66.63h-.41v.14l-10.51,2.32c2.18-14.88-6.42-34.82-6.28-51.75-2.05,4.23-3.69,9.28-4.64,14.06l-2.87,18.57c-1.78,12.83-7.92,31.27-24.17,34.95-8.19,1.91-14.75-2.73-15.84-7.51-1.37-5.87,2.59-10.1,6.83-11.06,2.87-.68,5.33,1.09,5.73,1.64-2.32.55-3.69,2.73-3.14,5.46.82,3.28,5.19,5.87,10.65,4.64,4.23-.96,8.46-5.6,10.38-10.1,4.64-11.06,1.64-24.44,6.55-40.14,2.46-7.65,6.01-14.34,9.69-18.02-10.65-.82-22.8-3.96-33.45-1.64-13.52,3.14-21.44,15.56-18.84,27.17,2.73,12.02,12.02,15.43,20.62,13.52,5.46-1.37,8.19-6.28,7.1-10.79-.68-3.14-3.28-5.32-6.55-4.64-.82.14-1.5.41-1.77.82,0-2.87,1.64-4.51,4.23-5.19,4.1-.96,8.6,1.64,9.69,6.55,2.05,8.88-6.42,15.97-14.61,17.89-11.74,2.59-23.48-3.14-26.62-17.2-3.14-13.79,6.28-27.99,22.67-31.68,16.38-3.69,32.09,4.37,45.06,1.37,1.09-.14,3.41-.82,4.64-1.23l-.14.68ZM111.33,99.21c1.37-3.69,2.32-9.42,5.6-28.26-1.37,1.5-3,2.59-4.92,3-.41.14-.96.14-1.77.14-2.73,5.73-6.42,10.1-10.24,10.92-7.1,1.64-9.56-4.64-10.38-8.33-2.59-11.61,4.92-30.99,15.16-33.31,11.88-2.73,12.29,12.29,7.78,25.12,3.14-.82,5.05-3.96,6.14-8.06l3.41-20.34,9.15-2.05c-1.09,1.77-2.59,8.06-3.41,12.83,2.05-6.42,5.46-13.93,11.06-15.29,6.83-1.5,9.29,4.64,10.1,8.33,2.73,12.15-3.41,28.54-13.79,30.86-4.23.96-7.78-.14-8.6-4.51-.55-2.59.96-5.32,3.82-6.55-.27.55-.27,1.09-.14,1.5.14,1.37,1.78,1.5,2.87,1.23,6.69-1.5,9.69-16.52,8.33-22.26-.55-2.59-2.18-3.55-4.1-3-3.28.68-7.78,8.88-9.97,19.39,0,.68-.14,1.23-.27,1.91l-.96,5.19-3.41,28.81-11.47,2.73ZM106.01,71.08c-1.5-3.82.55-10.51,4.37-11.33h.27c.27-1.91.82-6.14.27-9.01-.41-1.91-1.64-3.28-3.69-2.73-5.87,1.37-9.83,16.66-8.33,23.07.55,2.32,1.91,3,3.55,2.59,1.09-.27,2.46-1.09,3.55-2.59ZM194.34,50.19c1.37-.27,2.73-.27,3.96-.27,8.6,0,13.38,5.6,13.38,12.7,0,11.88-13.24,17.34-24.3,17.34h-20.21c-15.97,0-26.35,7.78-26.35,18.98,0,7.65,4.92,13.79,13.38,13.79,7.1,0,12.02-4.37,12.02-9.56,0-3.96-2.73-7.1-6.83-6.83-1.09.14-1.37.27-2.05,1.09,0-3.14,2.18-5.19,5.46-5.19,4.1,0,8.06,3.14,8.06,8.74,0,7.92-7.92,14.75-18.29,14.75-9.42,0-20.07-5.6-20.07-17.89s11.2-21.03,29.9-21.03h24.17c11.47,0,18.43-7.1,18.43-16.11,0-4.92-2.18-7.92-6.96-8.47.55.68.82,1.64.82,2.73,0,4.51-3.69,9.01-8.19,9.01-2.59,0-4.37-1.91-4.37-4.78v-.55c.27-4.37,4.1-8.46,8.06-8.46ZM179.87,34.22c.14,6.42-6.69,16.11-18.16,19.11l.41,2.46c.82,3.14,3.55,4.78,6.96,4.1,5.05-1.23,10.1-6.01,12.15-14.88,3,.41,2.05,5.46.68,8.6-3.28,7.51-9.01,14.61-16.25,16.25-6.14,1.5-11.88-2.73-12.83-9.28-1.64-11.74,6.83-29.63,17.07-31.95,2.87-.68,9.56-1.23,9.97,5.6ZM161.85,50.33c7.24-3.14,12.29-12.02,12.42-15.56.14-2.87-1.37-3.55-3.55-2.59-5.05,2.46-8.33,11.06-8.88,18.16ZM192.84,44.32c1.91-10.92,3.28-26.76,5.87-37.27,2.32-9.42,14.61-9.28,10.65-.27-4.92,11.33-11.33,26.9-13.38,36.86l-3.14.68Z"/>
  </g>
</svg>