<?xml version="1.0" encoding="UTF-8"?>
<svg id="b" data-name="Layer 2" xmlns="http://www.w3.org/2000/svg" xmlns:xlink="http://www.w3.org/1999/xlink" viewBox="0 0 583.54 252.99">
  <defs>
    <style>
      .e {
        fill: #d4365d;
      }

      .f {
        fill: #fff;
      }

      .g {
        clip-path: url(#d);
      }
    </style>
    <clipPath id="d">
      <path class="f" d="M151.11,83.29c-6.45,17.39-9.54,36.32-12.48,54.12,9.68-22.44,38.42-62.26,63.1-62.26,8.27,0,16.41,2.8,11.78,10.52-3.51.28-7.01,1.96-10.24,4.63-18.79,15-34.63,53.99-34.63,80.49,0,8.97,1.68,22.44,14.02,22.44,4.77,0,10.66-3.37,10.8-9.68.14-3.37-2.1-5.47-4.49-5.47h-.42c.28-1.26,3.37-3.79,7.01-3.79,4.91,0,8.13,4.07,7.85,8.84-.28,6.45-9.68,15-21.31,15-19.21,0-27.48-14.86-27.48-34.21,0-27.2,20.75-67.03,41.78-82.03-28.61,9.68-53.42,56.37-59.31,76.28h-17.11c7.85-20.47,6.87-47.53,14.86-69.69-5.05,5.61-9.68,13.18-13.04,20.75l-9.96,24.68c-6.31,17.25-20.61,40.52-44.31,40.52-11.92,0-19.49-8.27-19.49-15.14,0-8.41,6.73-13.18,13.04-13.18,4.07,0,7.01,2.94,7.15,4.06-3.37,0-5.75,2.53-5.75,6.45,0,5.05,5.05,9.81,13.04,9.81,6.17,0,13.46-5.05,17.53-10.66,9.96-14.02,9.96-33.37,21.73-53.42,5.89-9.96,13.04-18.37,19.49-22.3-14.02-4.63-29.31-12.48-44.17-12.48-18.79,0-33.09,15-33.09,31.69,0,17.67,11.22,25.1,22.86,25.1,8.13,0,13.18-6.03,13.18-12.48,0-4.63-2.8-8.55-7.71-8.55-.98,0-1.96.28-2.66.7.84-3.93,3.65-5.89,7.57-5.89,6.03,0,11.36,4.77,11.36,11.92,0,13.04-13.88,20.19-25.8,20.19-17.11,0-31.55-11.64-31.55-32.11s17.67-36.6,41.23-36.6,41.79,16.13,60.72,16.13c1.54,0,6.03-.28,7.71-.42l-2.8,6.03Z"/>
    </clipPath>
  </defs>
  <g id="c" data-name="Layer 1">
    <g>
      <circle class="e" cx="129.56" cy="126.49" r="126.49"/>
      <g>
        <path class="f" d="M151.11,83.29c-6.45,17.39-9.54,36.32-12.48,54.12,9.68-22.44,38.42-62.26,63.1-62.26,8.27,0,16.41,2.8,11.78,10.52-3.51.28-7.01,1.96-10.24,4.63-18.79,15-34.63,53.99-34.63,80.49,0,8.97,1.68,22.44,14.02,22.44,4.77,0,10.66-3.37,10.8-9.68.14-3.37-2.1-5.47-4.49-5.47h-.42c.28-1.26,3.37-3.79,7.01-3.79,4.91,0,8.13,4.07,7.85,8.84-.28,6.45-9.68,15-21.31,15-19.21,0-27.48-14.86-27.48-34.21,0-27.2,20.75-67.03,41.78-82.03-28.61,9.68-53.42,56.37-59.31,76.28h-17.11c7.85-20.47,6.87-47.53,14.86-69.69-5.05,5.61-9.68,13.18-13.04,20.75l-9.96,24.68c-6.31,17.25-20.61,40.52-44.31,40.52-11.92,0-19.49-8.27-19.49-15.14,0-8.41,6.73-13.18,13.04-13.18,4.07,0,7.01,2.94,7.15,4.06-3.37,0-5.75,2.53-5.75,6.45,0,5.05,5.05,9.81,13.04,9.81,6.17,0,13.46-5.05,17.53-10.66,9.96-14.02,9.96-33.37,21.73-53.42,5.89-9.96,13.04-18.37,19.49-22.3-14.02-4.63-29.31-12.48-44.17-12.48-18.79,0-33.09,15-33.09,31.69,0,17.67,11.22,25.1,22.86,25.1,8.13,0,13.18-6.03,13.18-12.48,0-4.63-2.8-8.55-7.71-8.55-.98,0-1.96.28-2.66.7.84-3.93,3.65-5.89,7.57-5.89,6.03,0,11.36,4.77,11.36,11.92,0,13.04-13.88,20.19-25.8,20.19-17.11,0-31.55-11.64-31.55-32.11s17.67-36.6,41.23-36.6,41.79,16.13,60.72,16.13c1.54,0,6.03-.28,7.71-.42l-2.8,6.03Z"/>
        <g class="g">
          <rect class="f" y="21.96" width="583.54" height="212.44"/>
        </g>
      </g>
    </g>
  </g>
</svg>