<?xml version="1.0" encoding="UTF-8"?>
<svg id="b" data-name="Layer 2" xmlns="http://www.w3.org/2000/svg" xmlns:xlink="http://www.w3.org/1999/xlink" viewBox="0 0 155.65 112.1">
  <defs>
    <style>
      .e {
        fill: url(#d);
      }
    </style>
    <linearGradient id="d" x1="19.86" y1="2.04" x2="123.26" y2="105.44" gradientUnits="userSpaceOnUse">
      <stop offset="0" stop-color="#d4365d"/>
      <stop offset=".14" stop-color="#bb3d6c"/>
      <stop offset=".42" stop-color="#7b5193"/>
      <stop offset=".5" stop-color="#69579f"/>
      <stop offset=".53" stop-color="#685da0"/>
      <stop offset=".74" stop-color="#6590b1"/>
      <stop offset=".91" stop-color="#62b0bc"/>
      <stop offset="1" stop-color="#62bcc0"/>
    </linearGradient>
  </defs>
  <g id="c" data-name="Layer 1">
    <path class="e" d="M82.88,100.35c4.78-8.47,9.01-18.3,12.02-27.99.27-.68.41-1.5.68-2.32h-24.3l-.41,1.23c-6.96,17.34-23.21,40.82-45.6,40.82-12.15,0-19.93-8.74-19.93-15.97,0-8.47,6.28-13.24,12.29-13.24,4.37,0,7.51,3,7.65,4.37-3.55-.14-6.14,2.59-6.14,6.83,0,5.19,5.32,10.24,13.79,10.24,6.55,0,11.33-3.96,14.88-9.69,9.56-15.43,8.88-35.64,21.03-55.98,4.92-8.33,12.7-15.02,19.93-20.07-13.79-4.37-28.95-12.7-44.1-12.7-19.12,0-33.59,14.61-33.59,30.86,0,17.2,11.47,24.44,23.62,24.44,7.92,0,12.83-5.87,12.83-12.15,0-4.51-2.73-8.33-7.51-8.33-.96,0-1.91.27-2.59.68.82-3.82,3.55-5.73,7.37-5.73,5.87,0,11.06,4.64,11.06,11.61,0,12.7-13.52,19.66-25.12,19.66C14.06,66.9,0,55.57,0,35.64S17.2,0,40.14,0c21.3,0,37.68,10.92,54.34,15.16,2.46-1.23,5.73-2.18,8.74-2.18s5.46,1.77,5.46,4.1-2.32,4.1-5.46,4.1c-2.05,0-4.1-.27-6.28-.55-6.01,5.19-11.88,16.52-16.38,26.62l-7.1,17.34h23.89c2.73-8.33,5.6-16.52,9.15-23.48,6.42-12.56,15.02-25.4,32.22-25.4,9.42,0,16.93,5.46,16.93,11.88,0,4.78-3.55,10.51-9.56,10.51-4.37,0-7.92-2.73-8.06-3.96,3.28.14,6.01-3.14,6.01-6.83,0-4.1-2.73-6.42-6.96-6.42-17.61,0-29.08,57.48-40.14,79.46h-14.06ZM148,72.36c-5.46,13.79-16.66,28.95-26.08,28.95-8.19,0-9.15-6.69-9.15-9.97,0-12.7,10.24-32.09,16.25-43.55h13.65s-15.56,28.13-15.56,36.46c0,2.05.68,3.28,2.46,3.28,4.78,0,9.69-6.55,13.93-15.16h4.51Z"/>
  </g>
</svg>