<?xml version="1.0" encoding="UTF-8"?>
<svg id="b" data-name="Layer 2" xmlns="http://www.w3.org/2000/svg" xmlns:xlink="http://www.w3.org/1999/xlink" viewBox="0 0 232.28 116.29">
  <defs>
    <style>
      .e {
        fill: url(#d);
      }
    </style>
    <linearGradient id="d" x1="62.41" y1="-19.2" x2="187.98" y2="106.37" gradientUnits="userSpaceOnUse">
      <stop offset="0" stop-color="#d4365d"/>
      <stop offset=".14" stop-color="#bb3d6c"/>
      <stop offset=".42" stop-color="#7b5193"/>
      <stop offset=".5" stop-color="#69579f"/>
      <stop offset=".53" stop-color="#685da0"/>
      <stop offset=".74" stop-color="#6590b1"/>
      <stop offset=".91" stop-color="#62b0bc"/>
      <stop offset="1" stop-color="#62bcc0"/>
    </linearGradient>
  </defs>
  <g id="c" data-name="Layer 1">
    <path class="e" d="M44.17,100.59c1.5-5.19,2.59-10.79,3.28-16.66,3.28-28.4.82-58.03-24.71-52.43-10.51,2.46-15.84,13.11-13.52,23.21,2.18,9.69,10.51,12.15,16.52,10.79,6.01-1.37,7.1-5.87,6.55-8.6-.68-2.87-2.87-4.92-5.73-4.37-.82.27-1.23.55-1.64.96,0-2.46,1.37-4.1,3.82-4.64,3.55-.82,7.37,1.23,8.33,5.87,1.77,7.37-5.19,13.65-13.24,15.43-10.1,2.32-20.89-3-23.35-13.65-2.73-12.15,6.42-24.99,21.85-28.54,16.52-3.69,32.63,6.01,35.09,22.39,1.64,10.38-.27,25.81-1.64,36.18,3.69-14.88,7.24-22.94,12.29-31.81-1.09-5.6-1.77-11.06-1.64-16.66.68-10.24,5.19-13.38,9.28-14.47,3.28-.68,7.1,0,8.19,4.92,1.23,5.6-2.46,11.88-7.1,20.07l1.09,4.92c1.77,7.65,3.28,15.84,3.14,24.03.68-1.91,1.5-3.96,2.18-6.42,3.55-19.52,14.61-52.57,33.72-57.35,9.28-2.18,15.29,1.77,16.38,6.42.68,3.41-.96,7.65-5.19,8.6-2.59.68-5.19-.82-5.46-1.77h.27c1.91-.41,3.41-2.73,2.87-5.19-.82-3.28-3.28-5.32-7.24-4.37-19.8,4.92-31.54,57.07-34.54,74.14l-5.32,1.23h-.27l-6.28,1.5v-.14l-2.05.41c3-11.33,1.37-22.12-.68-32.5-4.78,9.42-8.87,20.75-10.38,35.09l-4.1.82v.14l-10.79,2.46ZM74.07,37.51c.14,1.09.55,2.87,1.09,4.92,2.18-4.51,3.69-9.42,2.87-13.24-.41-1.5-1.23-2.05-2.32-1.77-2.05.41-3,3.69-1.64,10.1ZM121.45,49.11c-.27-1.09-1.09-1.5-2.05-1.23-4.64.96-13.11,24.3-14.34,30.17-.55,3-1.23,5.87-2.18,9.15l-10.24,2.32c4.1-16.52,8.88-46.01,15.7-63.35l10.1-2.32c-4.1,8.06-9.01,26.08-11.47,39.05,0,0,.14,0,.27-.14,3.14-8.88,6.14-18.3,14.2-20.21,3.96-.96,7.51.96,8.47,5.05,2.05,8.88-10.24,25.53-6.55,41.78.82,6.01,4.78,7.78,8.74,6.69,3-.68,6.28-3.55,5.33-7.65-.41-2.18-2.18-3.14-3.69-2.87l-.41.14c0-.82,1.64-3,3.96-3.41,3-.68,5.73,1.5,6.42,4.51.82,4.1-3.69,10.79-11.06,12.42-11.88,3-22.53-6.83-18.43-26.76,1.64-7.92,7.78-20.48,7.24-23.35ZM188.76,17.3c-1.09,3.55-2.32,8.06-3.55,12.56h.41c2.87,0,4.92-1.5,6.01-4.1,3.41,3.82-1.91,7.65-6.42,7.65h-.82c-2.46,9.97-4.51,20.07-3.55,23.48.27,1.5,1.23,2.73,3.28,2.18,3.41-.68,5.87-6.14,7.51-12.97,2.05-.14,2.46,3.69,1.77,6.01-2.46,8.74-7.1,16.79-12.56,18.02-6.55,1.5-8.6-3.41-9.15-5.87-.14-.14-.14-.41-.14-.68-2.59,5.73-6.01,10.24-9.83,11.06-6.01,1.23-7.65-3.28-8.19-5.6-.41-1.64-.55-3.55-.55-5.46-1.77,6.42-4.64,14.06-10.24,15.29-6.96,1.64-9.56-4.64-10.38-8.33-2.59-11.88,4.92-31.54,15.29-33.72,4.92-1.23,7.51.96,8.33,4.51,0,.41.14.82.14,1.23l1.91-7.37,9.69-2.18s-6.42,22.53-5.19,28.54c.41,1.5,1.09,2.32,2.32,1.91,3.14-.68,5.46-5.46,7.1-11.74.96-6.28,2.87-13.52,4.64-20.48-7.24-3.82-12.02-11.61-20.62-12.42-6.14-.55-9.97,3.41-9.97,6.83,0,3,1.09,5.19,3.82,5.19-7.1,3.82-10.24-1.77-10.65-4.78-.68-5.87,4.64-11.61,14.75-11.61s15.84,9.01,23.62,13.24l2.46-8.33,8.74-2.05ZM153.95,43.51c-.55-2.05-1.64-3.41-3.96-3-6.28,1.5-10.51,17.75-9.01,24.44.55,2.59,2.18,3.41,3.96,3,3.28-.68,7.1-6.01,8.6-14.06.27-1.37,1.23-6.83.41-10.38ZM207.88,50.75c1.37-.27,2.73-.27,3.96-.27,8.6,0,13.38,5.6,13.38,12.7,0,11.88-13.24,17.34-24.3,17.34h-20.21c-15.98,0-26.35,7.78-26.35,18.98,0,7.65,4.92,13.79,13.38,13.79,7.1,0,12.02-4.37,12.02-9.56,0-3.96-2.73-7.1-6.83-6.83-1.09.14-1.37.27-2.05,1.09,0-3.14,2.18-5.19,5.46-5.19,4.1,0,8.06,3.14,8.06,8.74,0,7.92-7.92,14.75-18.3,14.75-9.42,0-20.07-5.6-20.07-17.89s11.2-21.03,29.9-21.03h24.17c11.47,0,18.43-7.1,18.43-16.11,0-4.92-2.18-7.92-6.96-8.47.55.68.82,1.64.82,2.73,0,4.51-3.69,9.01-8.19,9.01-2.59,0-4.37-1.91-4.37-4.78v-.55c.27-4.37,4.1-8.46,8.06-8.46ZM205.97,45.15c-3.82-13.11,19.93-23.62,17.2-35.77-.96-4.51-5.46-7.51-11.2-6.14-6.55,1.5-10.24,7.24-8.6,14.2.41,2.46,1.91,6.01,4.78,5.87-.96,1.09-2.05,1.64-3.55,2.05-3.82.82-8.33-1.09-9.69-6.96-2.05-9.01,5.87-15.7,14.88-17.75,10.65-2.46,20.07,2.32,22.12,11.47,3.96,17.48-25.12,24.71-25.4,33.31l-.55-.27Z"/>
  </g>
</svg>