<?xml version="1.0" encoding="UTF-8"?>
<svg id="b" data-name="Layer 2" xmlns="http://www.w3.org/2000/svg" xmlns:xlink="http://www.w3.org/1999/xlink" viewBox="0 0 263.15 95.8">
  <defs>
    <style>
      .e {
        fill: #d4365d;
      }

      .f {
        clip-path: url(#d);
      }
    </style>
    <clipPath id="d">
      <path class="e" d="M68.14,27.66c-2.91,7.84-4.3,16.38-5.63,24.41,4.36-10.12,17.33-28.08,28.46-28.08,3.73,0,7.4,1.26,5.31,4.74-1.58.13-3.16.89-4.62,2.09-8.47,6.77-15.62,24.34-15.62,36.3,0,4.05.76,10.12,6.32,10.12,2.15,0,4.81-1.52,4.87-4.36.06-1.52-.95-2.47-2.02-2.47h-.19c.13-.57,1.52-1.71,3.16-1.71,2.21,0,3.67,1.83,3.54,3.98-.13,2.91-4.36,6.77-9.61,6.77-8.66,0-12.39-6.7-12.39-15.43,0-12.27,9.36-30.23,18.84-36.99-12.9,4.36-24.09,25.42-26.75,34.4h-7.71c3.54-9.23,3.1-21.44,6.7-31.43-2.28,2.53-4.36,5.94-5.88,9.36l-4.49,11.13c-2.85,7.78-9.29,18.27-19.98,18.27-5.38,0-8.79-3.73-8.79-6.83,0-3.79,3.04-5.94,5.88-5.94,1.83,0,3.16,1.33,3.23,1.83-1.52,0-2.59,1.14-2.59,2.91,0,2.28,2.28,4.43,5.88,4.43,2.78,0,6.07-2.28,7.9-4.81,4.49-6.32,4.49-15.05,9.8-24.09,2.66-4.49,5.88-8.28,8.79-10.05-6.32-2.09-13.22-5.63-19.92-5.63-8.47,0-14.92,6.77-14.92,14.29,0,7.97,5.06,11.32,10.31,11.32,3.67,0,5.94-2.72,5.94-5.63,0-2.09-1.26-3.86-3.48-3.86-.44,0-.88.13-1.2.32.38-1.77,1.64-2.66,3.41-2.66,2.72,0,5.12,2.15,5.12,5.38,0,5.88-6.26,9.11-11.63,9.11-7.71,0-14.23-5.25-14.23-14.48s7.97-16.5,18.59-16.5,18.84,7.27,27.38,7.27c.7,0,2.72-.13,3.48-.19l-1.26,2.72ZM102.55,44.35c-.76,4.11-6.32,9.17-13.85,9.48-.13.57-.13,1.08-.13,1.52,0,2.09,1.45,3.54,3.79,3.54,3.29,0,7.08-2.28,9.67-7.52h2.09c-2.34,6.13-8.73,13.22-15.43,13.22-3.73,0-6.64-2.66-6.64-6.77v-.76c.44-7.65,8.47-17.58,15.18-17.58,1.96,0,6.07.63,5.31,4.87ZM89.14,51.87c4.93-.89,9.36-5.69,9.99-7.9.51-1.83-.44-2.4-1.9-2.09-3.48.82-6.77,5.75-8.09,9.99ZM121.27,26.14c-4.43,6.64-14.73,26.05-14.73,30.73,0,.95.38,1.52,1.45,1.52,2.21,0,4.49-3.04,6.45-7.02h2.09c-2.53,6.39-7.71,13.41-12.08,13.41-4.05,0-4.49-3.1-4.55-4.62-.32-7.02,9.42-25.42,15.24-34.02h6.13ZM124.49,41.06c0,4.17,2.72,7.9,2.72,12.39,0,6.32-4.55,11.44-10.81,11.44-2.72,0-4.81-1.07-4.81-3.79,0-2.09,1.45-3.86,3.67-4.17-.32.25-.32.7-.32.95,0,.82.76,1.45,1.77,1.45,3.98,0,5.31-5.69,5.31-9.99,0-1.52-.44-3.86-.44-6.13,0-.32,0-.7.06-1.01-2.59,3.42-4.43,7.71-5.12,9.17h-2.09c.89-1.83,3.73-9.23,8.03-13.15.44-.38,1.14-.76,1.9-.76s1.52.38,1.77,1.01c-1.26.32-1.64,1.64-1.64,2.59ZM133.28,59.4v-.06c-1.26,3.42-2.97,7.33-3.86,8.92-2.97,4.93-6.64,8.41-14.1,8.41-5,0-8.09-3.04-8.09-5.88,0-2.02,1.45-4.17,3.98-4.17,1.52,0,2.78,1.14,2.85,1.71-1.26-.13-2.4,1.08-2.4,2.53,0,1.96,1.71,3.41,3.73,3.41,6.26,0,9.48-9.23,13.03-18.84,1.77-4.87,4.43-11.32,6.45-15.43h5.94c-1.45,2.02-3.54,5.56-4.62,8.6,2.21-3.92,5.63-9.11,9.67-9.11,4.55,0,5.19,4.24,5.19,6.64,0,7.9-6.07,17.33-12.96,17.33-2.78-.06-4.93-1.26-4.81-4.05ZM133.98,57.44c.57-.82,1.52-1.45,2.66-1.64-.19.32-.32.7-.32.95-.06.88.95,1.2,1.58,1.2,4.55,0,8.35-8.92,8.35-12.84,0-1.64-.82-2.4-2.02-2.4-2.4,0-6.77,4.87-9.11,11.51l-.95,2.66-.19.57ZM171.79,26.14c-4.43,6.64-14.73,26.05-14.73,30.73,0,.95.38,1.52,1.45,1.52,2.21,0,4.49-3.04,6.45-7.02h2.09c-2.53,6.39-7.71,13.41-12.08,13.41-4.05,0-4.49-3.1-4.55-4.62-.32-7.02,9.42-25.42,15.24-34.02h6.13ZM192.91,51.37c-2.53,6.39-7.71,13.41-12.08,13.41-3.79,0-4.24-3.1-4.24-4.62,0-1.01.13-2.15.38-3.35-2.02,3.73-4.8,7.97-8.41,7.97-4.55,0-5.19-4.24-5.19-6.64,0-7.65,7.4-18.65,14.1-18.65,3.16,0,4.49,1.71,4.49,3.98,0,.25-.06.57-.13.89.82-1.58,1.58-3.1,2.28-4.36h6.32s-7.21,13.03-7.21,16.88c0,.95.32,1.52,1.14,1.52,2.21,0,4.49-3.04,6.45-7.02h2.09ZM180.39,44.6c0-1.39-.51-2.4-2.02-2.4-4.05,0-8.92,9.42-8.92,13.79,0,1.64.82,2.4,2.02,2.4,2.15,0,5.19-2.78,7.27-7.52.32-.82,1.64-3.98,1.64-6.26ZM204.99,51.37c-2.53,6.39-7.71,13.41-12.08,13.41-3.79,0-4.24-3.1-4.24-4.62,0-5.88,4.74-14.86,7.52-20.17h6.32s-7.21,13.03-7.21,16.88c0,.95.32,1.52,1.14,1.52,2.21,0,4.49-3.04,6.45-7.02h2.09ZM204.49,26.77c2.4,0,3.73,1.9,2.97,4.3-.7,2.4-3.16,4.24-5.56,4.24s-3.67-1.83-2.97-4.24c.76-2.4,3.16-4.3,5.56-4.3ZM229.72,51.37c-2.53,6.39-7.71,13.41-12.08,13.41-.32,0-.57-.06-.82-.06-3.1-.44-3.86-3.35-3.86-4.74,0-5.63,7.4-13.66,7.4-16.19,0-.76-.44-1.08-1.01-1.08-2.47,0-9.74,9.36-13.03,15.93l-.44.95c-1.01,2.34-1.71,3.86-2.09,4.81h-6.89s3.54-6.77,10.81-24.41h6.32l-4.93,10.31h.32c3.29-5.12,6.89-10.88,12.2-10.88,2.59,0,4.43,1.39,4.43,3.98,0,3.98-5.94,9.36-5.94,13.47,0,.95.38,1.52,1.14,1.52,2.21,0,4.43-3.04,6.39-7.02h2.09ZM237.68,41.06c0,4.17,2.72,7.9,2.72,12.39,0,6.32-4.55,11.44-10.81,11.44-2.72,0-4.81-1.07-4.81-3.79,0-2.09,1.45-3.86,3.67-4.17-.32.25-.32.7-.32.95,0,.82.76,1.45,1.77,1.45,3.98,0,5.31-5.69,5.31-9.99,0-1.52-.44-3.86-.44-6.13,0-.32,0-.7.06-1.01-2.59,3.42-4.43,7.71-5.12,9.17h-2.09c.89-1.83,3.73-9.23,8.03-13.15.44-.38,1.14-.76,1.9-.76s1.52.38,1.77,1.01c-1.26.32-1.64,1.64-1.64,2.59Z"/>
    </clipPath>
  </defs>
  <g id="c" data-name="Layer 1">
    <g>
      <path class="e" d="M68.14,27.66c-2.91,7.84-4.3,16.38-5.63,24.41,4.36-10.12,17.33-28.08,28.46-28.08,3.73,0,7.4,1.26,5.31,4.74-1.58.13-3.16.89-4.62,2.09-8.47,6.77-15.62,24.34-15.62,36.3,0,4.05.76,10.12,6.32,10.12,2.15,0,4.81-1.52,4.87-4.36.06-1.52-.95-2.47-2.02-2.47h-.19c.13-.57,1.52-1.71,3.16-1.71,2.21,0,3.67,1.83,3.54,3.98-.13,2.91-4.36,6.77-9.61,6.77-8.66,0-12.39-6.7-12.39-15.43,0-12.27,9.36-30.23,18.84-36.99-12.9,4.36-24.09,25.42-26.75,34.4h-7.71c3.54-9.23,3.1-21.44,6.7-31.43-2.28,2.53-4.36,5.94-5.88,9.36l-4.49,11.13c-2.85,7.78-9.29,18.27-19.98,18.27-5.38,0-8.79-3.73-8.79-6.83,0-3.79,3.04-5.94,5.88-5.94,1.83,0,3.16,1.33,3.23,1.83-1.52,0-2.59,1.14-2.59,2.91,0,2.28,2.28,4.43,5.88,4.43,2.78,0,6.07-2.28,7.9-4.81,4.49-6.32,4.49-15.05,9.8-24.09,2.66-4.49,5.88-8.28,8.79-10.05-6.32-2.09-13.22-5.63-19.92-5.63-8.47,0-14.92,6.77-14.92,14.29,0,7.97,5.06,11.32,10.31,11.32,3.67,0,5.94-2.72,5.94-5.63,0-2.09-1.26-3.86-3.48-3.86-.44,0-.88.13-1.2.32.38-1.77,1.64-2.66,3.41-2.66,2.72,0,5.12,2.15,5.12,5.38,0,5.88-6.26,9.11-11.63,9.11-7.71,0-14.23-5.25-14.23-14.48s7.97-16.5,18.59-16.5,18.84,7.27,27.38,7.27c.7,0,2.72-.13,3.48-.19l-1.26,2.72ZM102.55,44.35c-.76,4.11-6.32,9.17-13.85,9.48-.13.57-.13,1.08-.13,1.52,0,2.09,1.45,3.54,3.79,3.54,3.29,0,7.08-2.28,9.67-7.52h2.09c-2.34,6.13-8.73,13.22-15.43,13.22-3.73,0-6.64-2.66-6.64-6.77v-.76c.44-7.65,8.47-17.58,15.18-17.58,1.96,0,6.07.63,5.31,4.87ZM89.14,51.87c4.93-.89,9.36-5.69,9.99-7.9.51-1.83-.44-2.4-1.9-2.09-3.48.82-6.77,5.75-8.09,9.99ZM121.27,26.14c-4.43,6.64-14.73,26.05-14.73,30.73,0,.95.38,1.52,1.45,1.52,2.21,0,4.49-3.04,6.45-7.02h2.09c-2.53,6.39-7.71,13.41-12.08,13.41-4.05,0-4.49-3.1-4.55-4.62-.32-7.02,9.42-25.42,15.24-34.02h6.13ZM124.49,41.06c0,4.17,2.72,7.9,2.72,12.39,0,6.32-4.55,11.44-10.81,11.44-2.72,0-4.81-1.07-4.81-3.79,0-2.09,1.45-3.86,3.67-4.17-.32.25-.32.7-.32.95,0,.82.76,1.45,1.77,1.45,3.98,0,5.31-5.69,5.31-9.99,0-1.52-.44-3.86-.44-6.13,0-.32,0-.7.06-1.01-2.59,3.42-4.43,7.71-5.12,9.17h-2.09c.89-1.83,3.73-9.23,8.03-13.15.44-.38,1.14-.76,1.9-.76s1.52.38,1.77,1.01c-1.26.32-1.64,1.64-1.64,2.59ZM133.28,59.4v-.06c-1.26,3.42-2.97,7.33-3.86,8.92-2.97,4.93-6.64,8.41-14.1,8.41-5,0-8.09-3.04-8.09-5.88,0-2.02,1.45-4.17,3.98-4.17,1.52,0,2.78,1.14,2.85,1.71-1.26-.13-2.4,1.08-2.4,2.53,0,1.96,1.71,3.41,3.73,3.41,6.26,0,9.48-9.23,13.03-18.84,1.77-4.87,4.43-11.32,6.45-15.43h5.94c-1.45,2.02-3.54,5.56-4.62,8.6,2.21-3.92,5.63-9.11,9.67-9.11,4.55,0,5.19,4.24,5.19,6.64,0,7.9-6.07,17.33-12.96,17.33-2.78-.06-4.93-1.26-4.81-4.05ZM133.98,57.44c.57-.82,1.52-1.45,2.66-1.64-.19.32-.32.7-.32.95-.06.88.95,1.2,1.58,1.2,4.55,0,8.35-8.92,8.35-12.84,0-1.64-.82-2.4-2.02-2.4-2.4,0-6.77,4.87-9.11,11.51l-.95,2.66-.19.57ZM171.79,26.14c-4.43,6.64-14.73,26.05-14.73,30.73,0,.95.38,1.52,1.45,1.52,2.21,0,4.49-3.04,6.45-7.02h2.09c-2.53,6.39-7.71,13.41-12.08,13.41-4.05,0-4.49-3.1-4.55-4.62-.32-7.02,9.42-25.42,15.24-34.02h6.13ZM192.91,51.37c-2.53,6.39-7.71,13.41-12.08,13.41-3.79,0-4.24-3.1-4.24-4.62,0-1.01.13-2.15.38-3.35-2.02,3.73-4.8,7.97-8.41,7.97-4.55,0-5.19-4.24-5.19-6.64,0-7.65,7.4-18.65,14.1-18.65,3.16,0,4.49,1.71,4.49,3.98,0,.25-.06.57-.13.89.82-1.58,1.58-3.1,2.28-4.36h6.32s-7.21,13.03-7.21,16.88c0,.95.32,1.52,1.14,1.52,2.21,0,4.49-3.04,6.45-7.02h2.09ZM180.39,44.6c0-1.39-.51-2.4-2.02-2.4-4.05,0-8.92,9.42-8.92,13.79,0,1.64.82,2.4,2.02,2.4,2.15,0,5.19-2.78,7.27-7.52.32-.82,1.64-3.98,1.64-6.26ZM204.99,51.37c-2.53,6.39-7.71,13.41-12.08,13.41-3.79,0-4.24-3.1-4.24-4.62,0-5.88,4.74-14.86,7.52-20.17h6.32s-7.21,13.03-7.21,16.88c0,.95.32,1.52,1.14,1.52,2.21,0,4.49-3.04,6.45-7.02h2.09ZM204.49,26.77c2.4,0,3.73,1.9,2.97,4.3-.7,2.4-3.16,4.24-5.56,4.24s-3.67-1.83-2.97-4.24c.76-2.4,3.16-4.3,5.56-4.3ZM229.72,51.37c-2.53,6.39-7.71,13.41-12.08,13.41-.32,0-.57-.06-.82-.06-3.1-.44-3.86-3.35-3.86-4.74,0-5.63,7.4-13.66,7.4-16.19,0-.76-.44-1.08-1.01-1.08-2.47,0-9.74,9.36-13.03,15.93l-.44.95c-1.01,2.34-1.71,3.86-2.09,4.81h-6.89s3.54-6.77,10.81-24.41h6.32l-4.93,10.31h.32c3.29-5.12,6.89-10.88,12.2-10.88,2.59,0,4.43,1.39,4.43,3.98,0,3.98-5.94,9.36-5.94,13.47,0,.95.38,1.52,1.14,1.52,2.21,0,4.43-3.04,6.39-7.02h2.09ZM237.68,41.06c0,4.17,2.72,7.9,2.72,12.39,0,6.32-4.55,11.44-10.81,11.44-2.72,0-4.81-1.07-4.81-3.79,0-2.09,1.45-3.86,3.67-4.17-.32.25-.32.7-.32.95,0,.82.76,1.45,1.77,1.45,3.98,0,5.31-5.69,5.31-9.99,0-1.52-.44-3.86-.44-6.13,0-.32,0-.7.06-1.01-2.59,3.42-4.43,7.71-5.12,9.17h-2.09c.89-1.83,3.73-9.23,8.03-13.15.44-.38,1.14-.76,1.9-.76s1.52.38,1.77,1.01c-1.26.32-1.64,1.64-1.64,2.59Z"/>
      <g class="f">
        <rect class="e" width="263.15" height="95.8"/>
      </g>
    </g>
  </g>
</svg>