<svg xmlns="http://www.w3.org/2000/svg" viewBox="0 0 728.88 436.26">
  <defs>
    <linearGradient id="g" x1="0%" y1="0%" x2="100%" y2="100%">
      <stop offset="0%" stop-color="#E8185A"/>
      <stop offset="50%" stop-color="#7C3AED"/>
      <stop offset="100%" stop-color="#00C9C8"/>
    </linearGradient>
  </defs>
  <path fill="url(#g)" d="M172.61,430.08c17.12-16.61,17.89-40.27,17.9-63.6l.02-124.79c0-6.91-.41-13.46-1.43-19.87-3.16-19.83-21.43-30.64-40.61-25.89-18.23,4.52-33.46,19.14-33.49,39.01l-.17,139.09c.95,21.13,1.61,40.34,18.08,56.04H.8c14.94-13.87,17.94-34.66,17.94-54.21v-138.56c0-21.49-1.89-44.83-18.74-59.3,7.18-2.84,14.36-5.06,22.15-6.65l48.33-13.68,44.31-13.77v50.67c26.25-34.92,77.31-54.87,119.59-49.99,26.88,3.1,46.34,27.28,50,52.88,4.37-7.02,9.78-13.62,16.71-19.41,28.85-24.1,66.55-37.25,104.4-33.71,16.9,1.58,30.22,13.25,40.17,26.48-38.94,34.02-61.3,82.92-61.64,134.67-.46,48.2,15.39,94.25,55.29,124.45l-95.74.11c16.57-16.1,17.15-35.83,17.99-57.6l-.03-134.76c0-6.44-.53-12.73-1.92-18.55-4.31-18.02-21.34-27.52-39.34-23.34s-33.72,17.62-33.78,36.84l-.45,143.8c.99,20.53,2.3,38.23,17.86,53.62h-131.29Z"/>
  <path fill="url(#g)" d="M455.42,406.53c-24.27-25.4-34.47-60.95-35.15-95.97-1.2-62.51,31.71-121.75,87.58-150.52,26.08-13.43,54.11-19,83.5-15.64,7.91.9,14.92,3.34,23.23,6.01l-.11-61.83c-.04-19.61-2.86-41.38-18.49-54.78l19.79-6.15L710.57,0v375.33c.48,10.65,1.23,19.82,3.28,29.63,2.79,9.72,7.08,17.59,15.03,25.09l-124.53.05c-9.58-3.96-19.41-4.93-29.1-1.39-11.74,4.28-23.54,7.55-36.18,7.55h-24.5c-23.14-2.27-43.32-13.16-59.15-29.73ZM548.78,400.54c13.99,5.55,29.08,6.23,43.04,1.26,11.06-3.94,22.43-14.45,22.45-27.25l.28-177.89c.02-11.11-6.28-20.71-16.33-25.01-22.01-9.42-47.24-1.65-60.98,17.77s-19.7,45.56-22.16,69.97c-3.4,33.61-4.04,82.1,7.66,112.8,4.74,12.44,13.09,23.22,26.04,28.35Z"/>
</svg>
